<?xml version="1.0" ?><svg id="Layer_2" style="enable-background:new 0 0 1000 1000;" version="1.1" viewBox="0 0 1000 1000" xml:space="preserve" xmlns="http://www.w3.org/2000/svg" xmlns:xlink="http://www.w3.org/1999/xlink"><path d="M847.865,408.093c0-1.44-1.68-2.36-3.06-1.69l-13.019,6.301c-2.45,1.19-4.18,3.33-4.69,5.819  l-2.75,13.53l-213.029,37.35c-19.082-37.231-52.346-68.17-87.111-78.555L511.25,265.445c-0.309-2.99-2.828-5.263-5.834-5.263  h-11.321c-3.007,0-5.526,2.273-5.835,5.263l-12.954,125.403c-34.739,10.379-67.983,41.28-87.07,78.475l-212.59-37.271l-2.75-13.53  c-0.511-2.489-2.23-4.63-4.681-5.819l-13.029-6.301c-1.381-0.67-3.051,0.25-3.051,1.69v56.46c0,7.68,5.04,14.61,12.79,17.59  l37.539,14.408c-5.84,6.545-9.394,15.172-9.394,24.632c0,20.444,16.573,37.018,37.018,37.018c20.385,0,36.917-16.477,37.014-36.839  l20.044,7.693c-6.639,6.69-10.741,15.9-10.741,26.07c0,20.444,16.573,37.018,37.018,37.018c20.444,0,37.018-16.573,37.018-37.018  c0-0.602-0.017-1.199-0.045-1.794l25.301,9.712c15.229,56.29,71.33,98.14,124.06,98.14c52.67,0,108.7-41.75,124-97.939l25.356-9.733  c-0.023,0.536-0.041,1.073-0.041,1.614c0,20.444,16.574,37.018,37.019,37.018c20.444,0,37.017-16.573,37.017-37.018  c0-10.104-4.053-19.259-10.616-25.938l19.923-7.647c0.192,20.279,16.685,36.66,37.009,36.66c20.444,0,37.018-16.573,37.018-37.018  c0-9.395-3.507-17.967-9.273-24.494l37.899-14.546c7.75-2.98,12.8-9.91,12.8-17.59V408.093z M230.088,537.165  c-8.826,0-15.982-7.155-15.982-15.982c0-7.503,5.177-13.78,12.148-15.5l17.08,6.557c1.726,2.552,2.735,5.63,2.735,8.943  C246.07,530.01,238.915,537.165,230.088,537.165z M313.422,571.107c-8.827,0-15.982-7.155-15.982-15.982s7.155-15.982,15.982-15.982  h0.007l10.636,4.083c3.27,2.926,5.34,7.166,5.34,11.899C329.404,563.952,322.248,571.107,313.422,571.107z M488.422,528.885  c-9.948-0.558-19.865-1.837-29.667-3.862c-8.76-1.8-17.43-4.19-25.94-7.17c-14.21-4.93-25.16-22.45-25.16-36.83  c0-3.08,0.5-5.77,1.43-8.04c3.4-8.39,12.55-11.159,23.73-7.29c18.044,6.31,36.769,9.983,55.607,11.036V528.885z M566.695,517.852  c-8.36,2.92-16.86,5.28-25.46,7.07c-9.958,2.084-20.036,3.4-30.147,3.967v-52.161c18.837-1.053,37.563-4.726,55.606-11.036  c11.2-3.88,20.39-1.079,23.76,7.37c0.91,2.25,1.4,4.91,1.4,7.96C591.856,495.402,580.896,512.923,566.695,517.852z M686.089,571.107  c-8.827,0-15.983-7.155-15.983-15.982c0-4.568,1.926-8.678,4.999-11.59l11.391-4.372c8.637,0.218,15.574,7.272,15.574,15.962  C702.07,563.952,694.915,571.107,686.089,571.107z M769.422,537.165c-8.826,0-15.982-7.155-15.982-15.982  c0-3.214,0.958-6.2,2.591-8.706l17.51-6.721c6.827,1.819,11.864,8.026,11.864,15.427  C785.404,530.01,778.249,537.165,769.422,537.165z" style="fill:#231F20;"/><path d="M409.515,412.103c12.96-12.73,27.04-22.83,41.521-29.92l-100.311-17.6l-1.27-6.22  c-0.23-1.15-1.02-2.131-2.15-2.681l-5.989-2.899c-0.641-0.311-1.41,0.119-1.41,0.779v25.98c0,3.54,2.319,6.729,5.89,8.1  L409.515,412.103z" style="fill:#231F20;"/><path d="M654.195,387.643c3.569-1.37,5.89-4.56,5.89-8.1v-25.98c0-0.66-0.77-1.09-1.4-0.779l-6,2.899  c-1.12,0.55-1.921,1.53-2.15,2.681l-1.271,6.22l-100.659,17.66c14.489,7.109,28.559,17.229,41.519,29.989L654.195,387.643z" style="fill:#231F20;"/><path d="M466.731,683.317c-6.627,0-12,5.372-12,12v32.5c0,6.627,5.373,12,12,12c6.628,0,12-5.373,12-12  v-7.764c0.092,0.003,0.182,0.014,0.273,0.014h9.059l0.191,1.856c0.31,2.99,2.83,5.26,5.84,5.26h11.32c3.01,0,5.53-2.27,5.84-5.26  l0.192-1.856h9.058c0.189,0,0.375-0.015,0.561-0.028v7.778c0,6.627,5.372,12,12,12c6.627,0,12-5.373,12-12v-32.5  c0-6.628-5.373-12-12-12c-6.628,0-12,5.372-12,12v7.778c-0.186-0.014-0.371-0.028-0.561-0.028h-7.303l2.683-25.975  c-5.359,0.72-10.739,1.09-16.13,1.09c-5.39,0-10.78-0.37-16.13-1.08l2.683,25.965h-7.303c-0.092,0-0.182,0.01-0.273,0.014v-7.764  C478.731,688.69,473.359,683.317,466.731,683.317z" style="fill:#231F20;"/></svg>