<?xml version="1.0" encoding="iso-8859-1"?>
<!-- Generator: Adobe Illustrator 23.0.4, SVG Export Plug-In . SVG Version: 6.00 Build 0)  -->
<svg version="1.1" xmlns="http://www.w3.org/2000/svg" xmlns:xlink="http://www.w3.org/1999/xlink" x="0px" y="0px"
	 viewBox="0 0 64 64" style="enable-background:new 0 0 64 64;" xml:space="preserve">
<g id="cloud">
	<path style="fill:#0A5CA4;" d="M19.701,35.334c-0.382-0.356-0.972-0.356-1.354,0c-0.159,0.146-3.855,3.619-3.855,6.944
		c0,2.418,2.033,4.383,4.531,4.383c2.498,0,4.531-1.965,4.531-4.383C23.556,38.953,19.857,35.48,19.701,35.334z M19.022,44.672
		c-1.401,0-2.54-1.074-2.54-2.394c-0.003-1.633,1.487-3.632,2.54-4.794c1.055,1.162,2.543,3.161,2.543,4.794
		C21.565,43.599,20.423,44.672,19.022,44.672z M47.385,35.334c-0.382-0.356-0.972-0.356-1.354,0
		c-0.156,0.146-3.855,3.619-3.853,6.944c0,2.418,2.033,4.383,4.531,4.383c2.498,0,4.531-1.965,4.531-4.383
		C51.241,38.953,47.544,35.48,47.385,35.334z M46.709,44.672c-1.401,0-2.543-1.074-2.543-2.394c0-1.633,1.487-3.632,2.543-4.794
		c1.053,1.162,2.543,3.161,2.54,4.794C49.249,43.599,48.11,44.672,46.709,44.672z M33.542,35.589c-0.38-0.356-0.972-0.356-1.352,0
		c-0.281,0.26-6.853,6.434-6.85,12.211c0,4.001,3.374,7.258,7.526,7.258c4.149,0,7.526-3.257,7.526-7.258
		C40.395,42.023,33.822,35.849,33.542,35.589z M32.866,53.067c-3.055,0-5.537-2.363-5.537-5.267
		c-0.003-3.923,3.926-8.405,5.537-10.077c1.612,1.672,5.54,6.146,5.537,10.077C38.403,50.704,35.92,53.067,32.866,53.067z
		 M54.191,23.539h-0.143c-1.284-5.059-5.829-8.641-11.124-8.641c-1.536,0-3.021,0.296-4.425,0.889
		c-2.519-4.245-7.037-6.845-12.013-6.845c-6.52,0-12.213,4.628-13.633,10.916c-0.367-0.039-0.723-0.055-1.076-0.055
		C5.283,19.803,0,25.086,0,31.58c0,6.494,5.283,11.777,11.777,11.777v-1.989c-5.397,0-9.788-4.391-9.788-9.788
		c0-5.397,4.391-9.788,9.788-9.788c0.538,0,1.097,0.052,1.708,0.159c0.263,0.044,0.533-0.016,0.751-0.172
		c0.218-0.156,0.364-0.395,0.403-0.66c0.881-5.808,5.974-10.188,11.847-10.188c4.544,0,8.647,2.53,10.703,6.601
		c0.12,0.237,0.33,0.416,0.582,0.499c0.255,0.081,0.53,0.057,0.764-0.065c1.373-0.718,2.849-1.079,4.388-1.079
		c4.628,0,8.561,3.309,9.351,7.867c0.091,0.517,0.567,0.876,1.087,0.819c0.273-0.029,0.549-0.044,0.829-0.044
		c4.313,0,7.82,3.507,7.82,7.82c0,4.313-3.507,7.82-7.82,7.82v1.989c5.41,0,9.809-4.401,9.809-9.809
		C64,27.941,59.601,23.539,54.191,23.539z"/>
	<path style="fill:#D0E7F2;" d="M49.249,42.278c0,1.321-1.139,2.394-2.54,2.394c-1.401,0-2.543-1.074-2.543-2.394
		c0-1.633,1.487-3.632,2.543-4.794C47.762,38.646,49.252,40.645,49.249,42.278z M19.022,37.484c-1.053,1.162-2.543,3.161-2.54,4.794
		c0,1.321,1.139,2.394,2.54,2.394c1.401,0,2.543-1.074,2.543-2.394C21.565,40.645,20.078,38.646,19.022,37.484z M32.866,37.723
		c-1.612,1.672-5.54,6.154-5.537,10.077c0,2.904,2.483,5.267,5.537,5.267s5.537-2.363,5.537-5.267
		C38.406,43.869,34.478,39.395,32.866,37.723z"/>
</g>
<g id="Layer_1">
</g>
</svg>
