<?xml version="1.0" encoding="UTF-8"?>
<!DOCTYPE svg PUBLIC "-//W3C//DTD SVG 1.1//EN" "http://www.w3.org/Graphics/SVG/1.1/DTD/svg11.dtd">
<!-- Creator: CorelDRAW -->
<svg xmlns="http://www.w3.org/2000/svg" xml:space="preserve" width="6.82666in" height="6.82666in" style="shape-rendering:geometricPrecision; text-rendering:geometricPrecision; image-rendering:optimizeQuality; fill-rule:evenodd; clip-rule:evenodd"
viewBox="0 0 6.82666 6.82666"
 xmlns:xlink="http://www.w3.org/1999/xlink">
 <defs>
  <style type="text/css">
   <![CDATA[
    .fil2 {fill:none}
    .fil1 {fill:#212121;fill-rule:nonzero}
    .fil0 {fill:#66BB6A;fill-rule:nonzero}
   ]]>
  </style>
 </defs>
 <g id="Layer_x0020_1">
  <metadata id="CorelCorpID_0Corel-Layer"/>
  <path class="fil0" d="M5.13232 3.5232c-0.271398,0.811906 -0.63002,1.17072 -0.957071,1.26427 -0.341429,0.0976496 -0.644854,-0.0833701 -0.798823,-0.350051l0.0920827 -0.0533346 -0.092378 0.0533346c-0.00185039,-0.00320866 -0.00351969,-0.00647244 -0.005,-0.00977953 -0.148673,-0.265449 -0.150591,-0.613362 0.101839,-0.857457 0.245492,-0.23739 0.73837,-0.368681 1.58318,-0.194614l-0.021252 0.104165 0.0215276 -0.104472c0.0576969,0.0118858 0.0948307,0.0683031 0.0829449,0.126 -0.00158661,0.00770472 -0.00397638,0.0150354 -0.00704724,0.0219409zm-1.0154 1.05927c0.254567,-0.0728071 0.539618,-0.363409 0.777441,-1.02151 -0.689165,-0.123122 -1.0835,-0.0215472 -1.27389,0.162555 -0.173232,0.167512 -0.169413,0.411189 -0.064437,0.599602 0.00170866,0.00245669 0.00332677,0.00499606 0.00485039,0.00763386l-0.000220472 0.000125984c0.109358,0.189315 0.321142,0.318835 0.556252,0.251594z"/>
  <path class="fil0" d="M5.08823 3.57181c0.0508543,-0.0294528 0.0682008,-0.094563 0.038748,-0.145417 -0.0294528,-0.0508543 -0.094563,-0.0682008 -0.145417,-0.038748l-2.06516 1.19232c-0.0508543,0.0294528 -0.0682008,0.094563 -0.038748,0.145417 0.0294528,0.0508543 0.094563,0.0682008 0.145417,0.038748l2.06516 -1.19232z"/>
  <path class="fil0" d="M1.01468 4.0302c0.642028,0.122134 0.951516,0.359575 1.05738,0.601004 0.112697,0.256996 0.00364567,0.513406 -0.188256,0.661807 -0.191913,0.148417 -0.467539,0.189469 -0.687949,0.0157362 -0.207878,-0.163846 -0.36024,-0.525346 -0.315126,-1.18261l0.106252 0.00708268 -0.106417 -0.00730315c0.0040315,-0.0587717 0.0549488,-0.103146 0.11372,-0.0991142 0.00702362,0.000480315 0.0138425,0.00164173 0.0203937,0.0033937zm0.862382 0.686004c-0.0752835,-0.171681 -0.306488,-0.344701 -0.790039,-0.453724 -0.0160748,0.495402 0.093248,0.762701 0.240504,0.878764 0.133665,0.105358 0.30502,0.0772126 0.42628,-0.016563 0.121272,-0.0937835 0.191618,-0.252579 0.123256,-0.408476z"/>
  <path class="fil0" d="M1.07115 4.06822c-0.0358976,-0.0464803 -0.102685,-0.055063 -0.149165,-0.0191654 -0.0464803,0.0358976 -0.055063,0.102685 -0.0191654,0.149165l1.0967 1.41813c0.0358976,0.0464803 0.102685,0.055063 0.149165,0.0191654 0.0464803,-0.0358976 0.055063,-0.102685 0.0191654,-0.149165l-1.0967 -1.41813z"/>
  <path class="fil0" d="M4.25559 5.35143c0.322098,-0.481232 0.624551,-0.651406 0.860079,-0.654142 0.253197,-0.00293701 0.427654,0.177933 0.483165,0.389476 0.0554528,0.211327 -0.00784646,0.454406 -0.230031,0.57626 -0.207205,0.113642 -0.556177,0.113343 -1.07681,-0.151236l0.0479173 -0.095 -0.0483228 0.0950945c-0.0525157,-0.026685 -0.0734567,-0.0909016 -0.0467717,-0.143417 0.0031063,-0.00611811 0.00672835,-0.0117992 0.0107795,-0.0170354zm0.861748 -0.441638c-0.159114,0.00184646 -0.37135,0.125055 -0.618902,0.465402 0.382677,0.174772 0.628165,0.17778 0.767862,0.101161 0.125264,-0.0686969 0.159567,-0.211012 0.126701,-0.33626 -0.0328071,-0.125028 -0.132618,-0.231961 -0.275661,-0.230303z"/>
  <path class="fil0" d="M4.31324 5.31387c-0.0568386,0.0147244 -0.0909764,0.0727441 -0.076252,0.129583 0.0147244,0.0568386 0.0727441,0.0909764 0.129583,0.076252l1.52412 -0.399957c0.0568386,-0.0147244 0.0909764,-0.0727441 0.076252,-0.129583 -0.0147244,-0.0568386 -0.0727441,-0.0909764 -0.129583,-0.076252l-1.52412 0.399957z"/>
  <path class="fil1" d="M5.86667 2.80058c0.0586811,0 0.106252,-0.0475709 0.106252,-0.106252 0,-0.0586811 -0.0475709,-0.106252 -0.106252,-0.106252 -0.0782165,0 -0.136102,-0.0217598 -0.185272,-0.0560984 -0.0550669,-0.0384606 -0.106028,-0.096878 -0.160693,-0.159563 -0.067811,-0.0777559 -0.140165,-0.160705 -0.239547,-0.228291 -0.103882,-0.0706535 -0.230394,-0.119677 -0.397047,-0.119677 -0.166638,0 -0.293138,0.0490276 -0.397008,0.119681 -0.099374,0.0675866 -0.17172,0.150531 -0.239543,0.228287 -0.0546693,0.062689 -0.105626,0.121114 -0.160673,0.159567 -0.0487992,0.0340866 -0.106587,0.0556772 -0.185244,0.0556772l0 0.000417323c-0.157205,-3.93701e-006 -0.244291,-0.0991535 -0.344724,-0.214283l9.44882e-005 -7.87402e-005 -4.33071e-005 -5.11811e-005 0.000177165 -0.000149606 -0.00100787 -0.00116142 3.93701e-006 -3.93701e-006 -0.000228346 -0.000255906 -0.00138976 -0.00155512 -0.000374016 -0.000409449 -0.00166929 -0.00176772 -8.66142e-005 -9.05512e-005c-0.000787402,-0.000814961 -0.00158661,-0.00162205 -0.0023937,-0.00240945 -0.0661693,-0.0758425 -0.137224,-0.156043 -0.233803,-0.221736 -0.103874,-0.0706496 -0.23037,-0.119677 -0.397004,-0.119677 -0.166638,0 -0.293134,0.0490276 -0.397008,0.119681 -0.0993701,0.0675866 -0.171728,0.150531 -0.239543,0.228287l0.08 0.07 -0.0116575 -0.0101654 -0.0683583 -0.059815 -9.84252e-005 0.000110236 -0.000275591 -0.000240157c-0.00100394,0.00114961 -0.00197244,0.0023189 -0.00291339,0.0035l-3.93701e-006 -3.93701e-006 -0.000133858 0.000169291 -0.00147638 0.00189764 -0.00011811 0.000153543 -0.000877953 0.00117323c-0.098248,0.112591 -0.184886,0.208465 -0.339961,0.208465l0 0.000417323c-0.0782165,0 -0.136094,-0.0217598 -0.185264,-0.0560984 -0.0550591,-0.0384567 -0.106028,-0.096878 -0.160705,-0.159563 -0.067626,-0.0775354 -0.139795,-0.160177 -0.237378,-0.226957 -0.10235,-0.0700433 -0.227346,-0.119067 -0.392587,-0.120394 -0.0586811,-0.00046063 -0.106626,0.0467362 -0.107087,0.105417 -0.00046063,0.0586811 0.0467362,0.106626 0.105417,0.107087 0.115862,0.000929134 0.203087,0.0350197 0.274256,0.0837244 0.0759409,0.0519685 0.138622,0.123756 0.197378,0.191122 0.0632205,0.0724803 0.122154,0.140028 0.199035,0.193728 0.0827756,0.057811 0.178941,0.0944331 0.306933,0.094437l0 0.000417323c0.250622,0 0.367504,-0.129969 0.50015,-0.282016l0.000397638 -0.000393701 0.000244094 -0.000240157 0.00159449 -0.00161024 0.00053937 -0.000562992 0.00127953 -0.00135827 0.00057874 -0.000637795 0.00127165 -0.00141732 0.000208661 -0.00023622 -3.93701e-006 -3.93701e-006c0.000980315,-0.00112598 0.00194882,-0.00227559 0.00288976,-0.00345276l-0.000208661 -0.000165354c0.0585709,-0.0671417 0.121114,-0.138256 0.195642,-0.188941 0.0713228,-0.0485118 0.159472,-0.0821772 0.277843,-0.0821772 0.118366,0 0.20652,0.0336654 0.277839,0.0821732 0.0733228,0.049874 0.135055,0.119531 0.192807,0.18572l0.000141732 0.000192913 0.000377953 0.000503937 0.00121654 0.00159055 0.000535433 0.000681102 0.00107087 0.00132677 0.000688976 0.000834646 0.000417323 0.000507874 7.87402e-006 -7.87402e-006 0.00108268 0.00127559 0.000275591 -0.000240157 6.29921e-005 7.08661e-005 0.0469016 -0.0410394 0.0331417 -0.0289094 -0.08 0.07c0.134858,0.154602 0.251311,0.288106 0.505882,0.288114l0 0.000417323c0.127539,0 0.22378,-0.0367835 0.306913,-0.0948504 0.0768819,-0.0537087 0.135799,-0.121256 0.199004,-0.193732 0.0594567,-0.0681654 0.122886,-0.140882 0.198709,-0.192453 0.0713228,-0.0485118 0.159469,-0.0821772 0.277843,-0.0821772 0.118394,0 0.206559,0.0336654 0.277882,0.0821732 0.0758346,0.0515748 0.139264,0.124291 0.198713,0.192457 0.0632087,0.0724803 0.122134,0.140028 0.199024,0.193728 0.0827756,0.057811 0.178957,0.0944331 0.306941,0.094437z"/>
  <path class="fil1" d="M5.86667 1.81033c0.0586811,0 0.106252,-0.0475709 0.106252,-0.106252 0,-0.0586811 -0.0475709,-0.106252 -0.106252,-0.106252 -0.0782165,0 -0.136102,-0.0217598 -0.185272,-0.0560984 -0.0550669,-0.0384606 -0.106028,-0.096878 -0.160693,-0.159563 -0.067811,-0.0777559 -0.140165,-0.160705 -0.239547,-0.228291 -0.103882,-0.0706535 -0.230394,-0.119677 -0.397047,-0.119677 -0.166638,0 -0.293138,0.0490276 -0.397008,0.119681 -0.099374,0.0675866 -0.17172,0.150531 -0.239543,0.228287 -0.0546693,0.062689 -0.105626,0.121114 -0.160673,0.159567 -0.0487992,0.0340866 -0.106587,0.0556772 -0.185244,0.0556772l0 0.000417323c-0.157205,-3.93701e-006 -0.244291,-0.0991535 -0.344724,-0.214283l9.44882e-005 -7.87402e-005 -4.33071e-005 -5.11811e-005 0.000177165 -0.000149606 -0.00100787 -0.00116142 3.93701e-006 -3.93701e-006 -0.000228346 -0.000255906 -0.00138976 -0.00155512 -0.000374016 -0.000409449 -0.00166929 -0.00176772 -8.66142e-005 -9.05512e-005c-0.000787402,-0.000814961 -0.00158661,-0.00162205 -0.0023937,-0.00240945 -0.0661693,-0.0758425 -0.137224,-0.156043 -0.233803,-0.221736 -0.103874,-0.0706496 -0.23037,-0.119677 -0.397004,-0.119677 -0.166638,0 -0.293134,0.0490276 -0.397008,0.119681 -0.0993701,0.0675866 -0.171728,0.150531 -0.239543,0.228287l0.0683425 0.0598346 -0.0683583 -0.059815 -9.84252e-005 0.000110236 -0.000275591 -0.000240157c-0.00100394,0.00114961 -0.00197244,0.0023189 -0.00291339,0.0035l-3.93701e-006 -3.93701e-006 -0.000133858 0.000169291 -0.00147638 0.00189764 -0.00011811 0.000153543 -0.000877953 0.00117323c-0.098248,0.112591 -0.184886,0.208465 -0.339961,0.208465l0 0.000417323c-0.0782165,0 -0.136094,-0.0217598 -0.185264,-0.0560984 -0.0550591,-0.0384567 -0.106028,-0.096878 -0.160705,-0.159563 -0.067626,-0.0775354 -0.139795,-0.160177 -0.237378,-0.226957 -0.10235,-0.0700433 -0.227346,-0.119067 -0.392587,-0.120394 -0.0586811,-0.00046063 -0.106626,0.0467362 -0.107087,0.105417 -0.00046063,0.0586811 0.0467362,0.106626 0.105417,0.107087 0.115862,0.000929134 0.203087,0.0350197 0.274256,0.0837244 0.0759409,0.0519685 0.138622,0.123756 0.197378,0.191122 0.0632205,0.0724803 0.122154,0.140028 0.199035,0.193728 0.0827756,0.057811 0.178941,0.0944331 0.306933,0.094437l0 0.000417323c0.250622,0 0.367504,-0.129969 0.50015,-0.282016l0.000397638 -0.000393701 0.000244094 -0.000240157 0.00159449 -0.00161024 0.00053937 -0.000562992 0.00127953 -0.00135827 0.00057874 -0.000637795 0.00127165 -0.00141732 0.000208661 -0.00023622 -3.93701e-006 -3.93701e-006c0.000980315,-0.00112598 0.00194882,-0.00227559 0.00288976,-0.00345276l-0.000208661 -0.000165354c0.0585709,-0.0671417 0.121114,-0.138256 0.195642,-0.188941 0.0713228,-0.0485118 0.159472,-0.0821772 0.277843,-0.0821772 0.118366,0 0.20652,0.0336654 0.277839,0.0821732 0.0733228,0.049874 0.135055,0.119531 0.192807,0.18572l0.000141732 0.000192913 0.000377953 0.000503937 0.00121654 0.00159055 0.000535433 0.000681102 0.00107087 0.00132677 0.000688976 0.000834646 0.000417323 0.000507874 7.87402e-006 -7.87402e-006 0.00108268 0.00127559 0.000275591 -0.000240157 6.29921e-005 7.08661e-005c0.082189,-0.0719173 0.112815,-0.098626 4.33071e-005,5.11811e-005 0.134858,0.154602 0.251311,0.288106 0.505882,0.288114l0 0.000417323c0.127539,0 0.22378,-0.0367835 0.306913,-0.0948504 0.0768819,-0.0537087 0.135799,-0.121256 0.199004,-0.193732 0.0594567,-0.0681654 0.122886,-0.140882 0.198709,-0.192453 0.0713228,-0.0485118 0.159469,-0.0821772 0.277843,-0.0821772 0.118394,0 0.206559,0.0336654 0.277882,0.0821732 0.0758346,0.0515748 0.139264,0.124291 0.198713,0.192457 0.0632087,0.0724803 0.122134,0.140028 0.199024,0.193728 0.0827756,0.057811 0.178957,0.0944331 0.306941,0.094437z"/>
 </g>
 <rect class="fil2" width="6.82666" height="6.82666"/>
</svg>
